# xmcd CD database file
#
# Track frame offsets:
#	150
#	20998
#	41341
#	60969
#	80720
#	101884
#	119102
#	140558
#	160630
#	182526
#	203713
#	221282
#	240728
#
# Disc length: 3451 seconds
#
# Revision: 5
# Processed by: cddbd v1.5.1PL0 Copyright (c) Steve Scherf et al.
# Submitted via: CDex 1.51
#
DISCID=b50d790d
DTITLE=Porno Graffitti - PORNO GRAFFITIBEST RED'S
DYEAR=2004
DGENRE=JPop
TTITLE0=Music Hour
TTITLE1=Century Lovers
TTITLE2=Ai ga Yobu Hou he
TTITLE3=Saudage
TTITLE4=Voice
TTITLE5=Lack
TTITLE6=Shiawase ni Tsuite Honki dashite Kangaete mita
TTITLE7=Go Steady Go!
TTITLE8=Ookami
TTITLE9=Vintage
TTITLE10=Dilemma
TTITLE11=Mugen
TTITLE12=Films
EXTD=YEAR: 2004
EXTT0=
EXTT1=
EXTT2=
EXTT3=
EXTT4=
EXTT5=
EXTT6=
EXTT7=
EXTT8=
EXTT9=
EXTT10=
EXTT11=
EXTT12=
PLAYORDER=
